#tb 0: 1/44100
#media_type 0: audio
#codec_id 0: pcm_s16le
#sample_rate 0: 44100
#channel_layout_name 0: mono
0,          0,          0,     1024,     2048, 0x490ff760
0,       1024,       1024,     1024,     2048, 0xc8a405cb
0,       2048,       2048,     1024,     2048, 0xeed6fd45
0,       3072,       3072,     1024,     2048, 0x8cabf8a0
0,       4096,       4096,     1024,     2048, 0x4707f6c1
0,       5120,       5120,     1024,     2048, 0xc1a50038
0,       6144,       6144,     1024,     2048, 0x3e75fa60
0,       7168,       7168,     1024,     2048, 0x988ffec2
0,       8192,       8192,     1024,     2048, 0x0537f926
0,       9216,       9216,     1024,     2048, 0x6919fd71
0,      10240,      10240,     1024,     2048, 0xeef4f7d0
0,      11264,      11264,     1024,     2048, 0xcf7a01c8
0,      12288,      12288,     1024,     2048, 0x2cf70048
0,      13312,      13312,     1024,     2048, 0x8a51fba6
0,      14336,      14336,     1024,     2048, 0x311af181
0,      15360,      15360,     1024,     2048, 0x8248009c
0,      16384,      16384,     1024,     2048, 0x9aa4010b
0,      17408,      17408,     1024,     2048, 0x1a2df2a0
0,      18432,      18432,     1024,     2048, 0xf6e2fb18
0,      19456,      19456,     1024,     2048, 0x548effbc
0,      20480,      20480,     1024,     2048, 0x965a01a9
0,      21504,      21504,     1024,     2048, 0x2554f834
0,      22528,      22528,     1024,     2048, 0xa390fdfc
0,      23552,      23552,     1024,     2048, 0x51d8f99b
0,      24576,      24576,     1024,     2048, 0xed47fd39
0,      25600,      25600,     1024,     2048, 0x79b8faeb
0,      26624,      26624,     1024,     2048, 0xf6da009c
0,      27648,      27648,     1024,     2048, 0x0ffbf6a2
0,      28672,      28672,     1024,     2048, 0xb6a6f823
0,      29696,      29696,     1024,     2048, 0x5cbefcb7
0,      30720,      30720,     1024,     2048, 0xb0eb06ea
0,      31744,      31744,     1024,     2048, 0x5edbf7ce
0,      32768,      32768,     1024,     2048, 0x490ff760
0,      33792,      33792,     1024,     2048, 0xc8a405cb
0,      34816,      34816,     1024,     2048, 0xeed6fd45
0,      35840,      35840,     1024,     2048, 0x8cabf8a0
0,      36864,      36864,     1024,     2048, 0x4707f6c1
0,      37888,      37888,     1024,     2048, 0xc1a50038
0,      38912,      38912,     1024,     2048, 0x3e75fa60
0,      39936,      39936,     1024,     2048, 0x988ffec2
0,      40960,      40960,     1024,     2048, 0x0537f926
0,      41984,      41984,     1024,     2048, 0x6919fd71
0,      43008,      43008,     1024,     2048, 0xeef4f7d0
0,      44032,      44032,     1024,     2048, 0xee07eb41
0,      45056,      45056,     1024,     2048, 0xd8d9f658
0,      46080,      46080,     1024,     2048, 0x9b30051b
0,      47104,      47104,     1024,     2048, 0x5605f37f
0,      48128,      48128,     1024,     2048, 0x6f6afd03
0,      49152,      49152,     1024,     2048, 0x9ca8fd97
0,      50176,      50176,     1024,     2048, 0x37f4fe98
0,      51200,      51200,     1024,     2048, 0x8e66fb1f
0,      52224,      52224,     1024,     2048, 0x3268f6cf
0,      53248,      53248,     1024,     2048, 0x4636fb46
0,      54272,      54272,     1024,     2048, 0xb413fbd5
0,      55296,      55296,     1024,     2048, 0xabfd08c3
0,      56320,      56320,     1024,     2048, 0x7810f6e4
0,      57344,      57344,     1024,     2048, 0xb59f19b5
0,      58368,      58368,     1024,     2048, 0xd8ea0714
0,      59392,      59392,     1024,     2048, 0xd49a00e4
0,      60416,      60416,     1024,     2048, 0xffed0128
0,      61440,      61440,     1024,     2048, 0x50cbec23
0,      62464,      62464,     1024,     2048, 0xe215f92b
0,      63488,      63488,     1024,     2048, 0xa8bb00e1
0,      64512,      64512,     1024,     2048, 0x2b55f854
0,      65536,      65536,     1024,     2048, 0xca1cf07e
0,      66560,      66560,     1024,     2048, 0xd059ff29
0,      67584,      67584,     1024,     2048, 0xdd43fcd5
0,      68608,      68608,     1024,     2048, 0x44edfacb
0,      69632,      69632,     1024,     2048, 0xd7bc00c0
0,      70656,      70656,     1024,     2048, 0x459ff45b
0,      71680,      71680,     1024,     2048, 0x11f5fed5
0,      72704,      72704,     1024,     2048, 0x2b670370
0,      73728,      73728,     1024,     2048, 0xe785fa99
0,      74752,      74752,     1024,     2048, 0xf8610009
0,      75776,      75776,     1024,     2048, 0xb8f80489
0,      76800,      76800,     1024,     2048, 0xa1cd0ec4
0,      77824,      77824,     1024,     2048, 0xad05fdbe
0,      78848,      78848,     1024,     2048, 0x7d630249
0,      79872,      79872,     1024,     2048, 0xc112f3d4
0,      80896,      80896,     1024,     2048, 0x6ed9fc34
0,      81920,      81920,     1024,     2048, 0xf2c0168a
0,      82944,      82944,     1024,     2048, 0x2fc416cd
0,      83968,      83968,     1024,     2048, 0xea5dff83
0,      84992,      84992,      710,     1420, 0xb52fc572
0,      85702,      85702,     4410,     8820, 0x4d381731
0,      90112,      90112,     1024,     2048, 0x8f07f6ee
0,      91136,      91136,     1024,     2048, 0x50440744
0,      92160,      92160,     1024,     2048, 0x473bf7f0
0,      93184,      93184,     1024,     2048, 0x8c5cf82a
0,      94208,      94208,     1024,     2048, 0xa53afdab
0,      95232,      95232,     1024,     2048, 0x63fbfcd3
0,      96256,      96256,     1024,     2048, 0xeb35fda7
0,      97280,      97280,     1024,     2048, 0x4a1603a2
0,      98304,      98304,     1024,     2048, 0xf18dfab6
0,      99328,      99328,     1024,     2048, 0x6f99eef6
0,     100352,     100352,     1024,     2048, 0x83840106
0,     101376,     101376,     1024,     2048, 0x5e5a00c3
0,     102400,     102400,     1024,     2048, 0x85d7fd23
0,     103424,     103424,     1024,     2048, 0x0ee9f070
0,     104448,     104448,     1024,     2048, 0xf600fb00
0,     105472,     105472,     1024,     2048, 0x0fb80575
0,     106496,     106496,     1024,     2048, 0x52c6017d
0,     107520,     107520,     1024,     2048, 0x9419f127
0,     108544,     108544,     1024,     2048, 0xa13a007d
0,     109568,     109568,     1024,     2048, 0x717bfe33
0,     110592,     110592,     1024,     2048, 0x44f1fab3
0,     111616,     111616,     1024,     2048, 0x7d06fb89
0,     112640,     112640,     1024,     2048, 0xf84dfab5
0,     113664,     113664,     1024,     2048, 0x9899f4c9
0,     114688,     114688,     1024,     2048, 0xf031fda6
0,     115712,     115712,     1024,     2048, 0x74c40975
0,     116736,     116736,     1024,     2048, 0x6495f766
0,     117760,     117760,     1024,     2048, 0x7e85f7a7
0,     118784,     118784,     1024,     2048, 0x589afb39
0,     119808,     119808,     1024,     2048, 0xd21807fb
0,     120832,     120832,     1024,     2048, 0xed82fd5c
0,     121856,     121856,     1024,     2048, 0xd669f2f6
0,     122880,     122880,     1024,     2048, 0x8f07f6ee
0,     123904,     123904,     1024,     2048, 0x50440744
0,     124928,     124928,     1024,     2048, 0x473bf7f0
0,     125952,     125952,     1024,     2048, 0x8c5cf82a
0,     126976,     126976,     1024,     2048, 0xa53afdab
0,     128000,     128000,     1024,     2048, 0x63fbfcd3
0,     129024,     129024,     1024,     2048, 0x41ac0a79
0,     130048,     130048,     1024,     2048, 0x7569ddf3
0,     131072,     131072,     1024,     2048, 0x7588f9c9
0,     132096,     132096,     1024,     2048, 0x4bb4f2ad
0,     133120,     133120,     1024,     2048, 0x0a29021d
0,     134144,     134144,     4410,     8820, 0xaf4b51a4
0,     138554,     138554,     1024,     2048, 0x2a940755
0,     139578,     139578,     1024,     2048, 0xd9d20b41
0,     140602,     140602,     1024,     2048, 0x23c2f62e
0,     141626,     141626,     1024,     2048, 0x3bb5f531
0,     142650,     142650,     1024,     2048, 0x57dffd27
0,     143674,     143674,     1024,     2048, 0x48e2f322
0,     144698,     144698,     1024,     2048, 0xd2c7f10a
0,     145722,     145722,     1024,     2048, 0xe13afb8f
0,     146746,     146746,     1024,     2048, 0x681a1844
0,     147770,     147770,     1024,     2048, 0x556fea66
0,     148794,     148794,     1024,     2048, 0xec880231
0,     149818,     149818,     1024,     2048, 0xb826ed5a
0,     150842,     150842,     1024,     2048, 0x43ad0045
0,     151866,     151866,     1024,     2048, 0x469df6fc
0,     152890,     152890,     1024,     2048, 0x6bc7eda5
0,     153914,     153914,     1024,     2048, 0x4bf00baa
0,     154938,     154938,     1024,     2048, 0xa14afe5a
0,     155962,     155962,     1024,     2048, 0x4fa6eb3e
0,     156986,     156986,     1024,     2048, 0x4080f71c
0,     158010,     158010,     1024,     2048, 0x9478f217
0,     159034,     159034,     1024,     2048, 0x24def107
0,     160058,     160058,     1024,     2048, 0x11f2f63b
0,     161082,     161082,     1024,     2048, 0xc47ffcd5
0,     162106,     162106,     1024,     2048, 0xea590220
0,     163130,     163130,     1024,     2048, 0xd98b0888
0,     164154,     164154,     1024,     2048, 0x88c40856
0,     165178,     165178,     1024,     2048, 0x817af922
0,     166202,     166202,     1024,     2048, 0xe0100804
0,     167226,     167226,     1024,     2048, 0xd7f3fb50
0,     168250,     168250,     1024,     2048, 0x77e8fd45
0,     169274,     169274,     1024,     2048, 0xe0cefaa1
0,     170298,     170298,     1024,     2048, 0x20620151
0,     171322,     171322,     1024,     2048, 0x97d2ff9b
0,     172346,     172346,     1024,     2048, 0x08e2f5d4
0,     173370,     173370,     1024,     2048, 0x0fa8fb60
0,     174394,     174394,     1024,     2048, 0xf03fe8b5
0,     175418,     175418,     1024,     2048, 0x39dcfcef
0,     176442,     176442,     1024,     2048, 0x4a270176
0,     177466,     177466,     1024,     2048, 0xbcfefdb0
0,     178490,     178490,     1024,     2048, 0xbefdfcaa
0,     179514,     179514,     1024,     2048, 0x4447e693
0,     180538,     180538,     1024,     2048, 0x3e46f914
0,     181562,     181562,     1024,     2048, 0x6182eddd
0,     182586,     182586,     1024,     2048, 0xb73ef32e
0,     183610,     183610,     1024,     2048, 0xf9a80887
0,     184634,     184634,     1024,     2048, 0xf7d7e193
0,     185658,     185658,     1024,     2048, 0xc6020158
0,     186682,     186682,     1024,     2048, 0xc00cf907
0,     187706,     187706,     1024,     2048, 0x9c67f01f
0,     188730,     188730,     1024,     2048, 0x66c00433
0,     189754,     189754,     1024,     2048, 0x7721ed3e
0,     190778,     190778,     1024,     2048, 0x84c5009e
0,     191802,     191802,     1024,     2048, 0x524e0255
0,     192826,     192826,     1024,     2048, 0x954e6fc6
0,     193850,     193850,     1024,     2048, 0x92ecc373
0,     194874,     194874,     1024,     2048, 0xfa3ff0e2
0,     195898,     195898,     1024,     2048, 0x28d4fd0f
0,     196922,     196922,     1024,     2048, 0x499c036c
0,     197946,     197946,     1024,     2048, 0x1b77f88f
0,     198970,     198970,     1024,     2048, 0xd9920d25
0,     199994,     199994,     1024,     2048, 0x217cf6a0
0,     201018,     201018,     1024,     2048, 0x447dffb5
0,     202042,     202042,     1024,     2048, 0xba7812c6
0,     203066,     203066,     1024,     2048, 0xba09ecee
0,     204090,     204090,     1024,     2048, 0xcdc0089d
0,     205114,     205114,     1024,     2048, 0xed63068e
0,     206138,     206138,     1024,     2048, 0x03b10426
0,     207162,     207162,     1024,     2048, 0xf3e91165
0,     208186,     208186,     1024,     2048, 0x9562f87b
0,     209210,     209210,     1024,     2048, 0xe623fba7
0,     210234,     210234,     1024,     2048, 0x224ffaab
0,     211258,     211258,     1024,     2048, 0x24a8fbb2
0,     212282,     212282,     1024,     2048, 0xa19611d8
0,     213306,     213306,     1024,     2048, 0xa39bff48
0,     214330,     214330,     1024,     2048, 0x8a4d0a90
0,     215354,     215354,     1024,     2048, 0x28df053d
0,     216378,     216378,     1024,     2048, 0xe8f6efe4
0,     217402,     217402,     1024,     2048, 0xed9516d9
0,     218426,     218426,     1024,     2048, 0x161bf712
0,     219450,     219450,     1024,     2048, 0x236dff55
0,     220474,     220474,     1024,     2048, 0x4a72084d
0,     221498,     221498,     1024,     2048, 0x7af5f438
0,     222522,     222522,     1024,     2048, 0x698c0b2d
0,     223546,     223546,     1024,     2048, 0x631af7ce
0,     224570,     224570,     1024,     2048, 0x908bf616
0,     225594,     225594,     1024,     2048, 0xce976db2
0,     226618,     226618,     1024,     2048, 0xa4a4bf5f
0,     227642,     227642,     1024,     2048, 0xe8ff0789
0,     228666,     228666,     1024,     2048, 0xbe1bfb4e
0,     229690,     229690,     1024,     2048, 0x9bddf4ff
0,     230714,     230714,     1024,     2048, 0xc8faffcd
0,     231738,     231738,     1024,     2048, 0x0e63eb47
0,     232762,     232762,     1024,     2048, 0xc13101cb
0,     233786,     233786,     1024,     2048, 0x9d4ef8a7
0,     234810,     234810,     1024,     2048, 0x2671e5a5
0,     235834,     235834,     1024,     2048, 0x29700b7d
0,     236858,     236858,     1024,     2048, 0x18edefcf
0,     237882,     237882,     1024,     2048, 0xf591f1de
0,     238906,     238906,     1024,     2048, 0xe094f445
0,     239930,     239930,     1024,     2048, 0xec51e706
0,     240954,     240954,     1024,     2048, 0x4d1fffe1
0,     241978,     241978,     1024,     2048, 0xf853fcb5
0,     243002,     243002,     1024,     2048, 0xbcfefdb0
0,     244026,     244026,     1024,     2048, 0xbefdfcaa
0,     245050,     245050,     1024,     2048, 0x4447e693
0,     246074,     246074,     1024,     2048, 0x3e46f914
0,     247098,     247098,     1024,     2048, 0x6182eddd
0,     248122,     248122,     1024,     2048, 0xb73ef32e
0,     249146,     249146,     1024,     2048, 0xf9a80887
0,     250170,     250170,     1024,     2048, 0xf7d7e193
0,     251194,     251194,     1024,     2048, 0xc6020158
0,     252218,     252218,     1024,     2048, 0xc00cf907
0,     253242,     253242,     1024,     2048, 0x9c67f01f
0,     254266,     254266,     1024,     2048, 0x66c00433
0,     255290,     255290,     1024,     2048, 0x7721ed3e
0,     256314,     256314,     1024,     2048, 0x84c5009e
0,     257338,     257338,     1024,     2048, 0x524e0255
0,     258362,     258362,     1024,     2048, 0x954e6fc6
0,     259386,     259386,     1024,     2048, 0x92ecc373
0,     260410,     260410,     1024,     2048, 0xfa3ff0e2
0,     261434,     261434,     1024,     2048, 0x28d4fd0f
0,     262458,     262458,     1024,     2048, 0x499c036c
0,     263482,     263482,     1024,     2048, 0x1b77f88f
0,     264506,     264506,     1024,     2048, 0xd9920d25
0,     265530,     265530,     1024,     2048, 0xe0e25c8d
